#tb 0: 1/25
0,          0,          0,        1,   149760, 0x8edb27d7
0,          1,          1,        1,   149760, 0x187419b5
0,          2,          2,        1,   149760, 0x61100980
0,          3,          3,        1,   149760, 0xd799123e
0,          4,          4,        1,   149760, 0x9011c8d0
0,          5,          5,        1,   149760, 0xeafe7d99
0,          6,          6,        1,   149760, 0x94f32245
0,          7,          7,        1,   149760, 0x8185910a
